<svg xmlns="http://www.w3.org/2000/svg" viewBox="0 0 1200 630" width="1200" height="630" role="img" aria-label="MHR MANUTENÇÃO INDUSTRIAL — imagem provisória">
  <defs>
    <pattern id="g1" width="56" height="56" patternUnits="userSpaceOnUse">
      <path d="M56 0H0V56" fill="none" stroke="rgba(255,255,255,0.055)" stroke-width="1"/>
    </pattern>
    <pattern id="g2" width="280" height="280" patternUnits="userSpaceOnUse">
      <rect width="280" height="280" fill="url(#g1)"/>
      <path d="M280 0H0V280" fill="none" stroke="rgba(255,255,255,0.1)" stroke-width="1"/>
    </pattern>
    <linearGradient id="bg" x1="0" y1="0" x2="0.9" y2="1">
      <stop offset="0" stop-color="#3a424c"/>
      <stop offset="1" stop-color="#20252c"/>
    </linearGradient>
    <radialGradient id="glow" cx="0.78" cy="0.72" r="0.7">
      <stop offset="0" stop-color="#F48009" stop-opacity="0.1"/>
      <stop offset="1" stop-color="#F48009" stop-opacity="0"/>
    </radialGradient>
  </defs>
  <rect width="1200" height="630" fill="url(#bg)"/>
  <rect width="1200" height="630" fill="url(#glow)"/>
  <rect width="1200" height="630" fill="url(#g2)"/>
  <g stroke="#F48009" stroke-opacity="0.13" fill="none" stroke-width="1.6">
    <circle cx="888" cy="415.8" r="264.59999999999997"/>
    <circle cx="888" cy="415.8" r="158.8"/>
    <circle cx="888" cy="415.8" r="68.8"/>
    <line x1="1099.7" y1="415.8" x2="1189.6" y2="415.8"/><line x1="1095.6" y1="457.1" x2="1183.8" y2="474.6"/><line x1="1083.6" y1="496.8" x2="1166.7" y2="531.2"/><line x1="1064.0" y1="533.4" x2="1138.8" y2="583.4"/><line x1="1037.7" y1="565.5" x2="1101.3" y2="629.1"/><line x1="1005.6" y1="591.8" x2="1055.6" y2="666.6"/><line x1="969.0" y1="611.4" x2="1003.4" y2="694.5"/><line x1="929.3" y1="623.4" x2="946.8" y2="711.6"/><line x1="888.0" y1="627.5" x2="888.0" y2="717.4"/><line x1="846.7" y1="623.4" x2="829.2" y2="711.6"/><line x1="807.0" y1="611.4" x2="772.6" y2="694.5"/><line x1="770.4" y1="591.8" x2="720.4" y2="666.6"/><line x1="738.3" y1="565.5" x2="674.7" y2="629.1"/><line x1="712.0" y1="533.4" x2="637.2" y2="583.4"/><line x1="692.4" y1="496.8" x2="609.3" y2="531.2"/><line x1="680.4" y1="457.1" x2="592.2" y2="474.6"/><line x1="676.3" y1="415.8" x2="586.4" y2="415.8"/><line x1="680.4" y1="374.5" x2="592.2" y2="357.0"/><line x1="692.4" y1="334.8" x2="609.3" y2="300.4"/><line x1="712.0" y1="298.2" x2="637.2" y2="248.2"/><line x1="738.3" y1="266.1" x2="674.7" y2="202.5"/><line x1="770.4" y1="239.8" x2="720.4" y2="165.0"/><line x1="807.0" y1="220.2" x2="772.6" y2="137.1"/><line x1="846.7" y1="208.2" x2="829.2" y2="120.0"/><line x1="888.0" y1="204.1" x2="888.0" y2="114.2"/><line x1="929.3" y1="208.2" x2="946.8" y2="120.0"/><line x1="969.0" y1="220.2" x2="1003.4" y2="137.1"/><line x1="1005.6" y1="239.8" x2="1055.6" y2="165.0"/><line x1="1037.7" y1="266.1" x2="1101.3" y2="202.5"/><line x1="1064.0" y1="298.2" x2="1138.8" y2="248.2"/><line x1="1083.6" y1="334.8" x2="1166.7" y2="300.4"/><line x1="1095.6" y1="374.5" x2="1183.8" y2="357.0"/>
  </g>
  <rect x="0" y="602.0" width="1200" height="1.9" fill="#F48009" fill-opacity="0.1"/><rect x="0" y="608.2" width="1200" height="1.9" fill="#F48009" fill-opacity="0.1"/><rect x="0" y="614.4" width="1200" height="1.9" fill="#F48009" fill-opacity="0.1"/><rect x="0" y="620.7" width="1200" height="1.9" fill="#F48009" fill-opacity="0.1"/><rect x="0" y="626.9" width="1200" height="1.9" fill="#F48009" fill-opacity="0.1"/><rect x="0" y="633.1" width="1200" height="1.9" fill="#F48009" fill-opacity="0.1"/><rect x="0" y="639.3" width="1200" height="1.9" fill="#F48009" fill-opacity="0.1"/><rect x="0" y="645.6" width="1200" height="1.9" fill="#F48009" fill-opacity="0.1"/><rect x="0" y="651.8" width="1200" height="1.9" fill="#F48009" fill-opacity="0.1"/>
  <rect x="38" y="38" width="16" height="4" fill="#F48009" fill-opacity="0.5"/>
  
  <g transform="translate(600, 315)" text-anchor="middle" opacity="0.42">
    <rect x="-10" y="-128" width="20" height="4" fill="#F48009"/>
    <text y="-73" fill="#F48009" font-family="Arial, Helvetica, sans-serif" font-size="13" font-weight="700" letter-spacing="2.9">IMAGEM PROVISÓRIA</text>
    <text y="0" fill="#FFFFFF" fill-opacity="0.72" font-family="Arial, Helvetica, sans-serif" font-size="29" font-weight="700" letter-spacing="0.6">MHR MANUTENÇÃO INDUSTRIAL</text>
    <text y="34" fill="#FFFFFF" fill-opacity="0.5" font-family="Arial, Helvetica, sans-serif" font-size="20">Engenharia e manutenção para operações industriais</text>
    <text y="72" fill="#F48009" fill-opacity="0.85" font-family="Arial, Helvetica, sans-serif" font-size="13" font-weight="700" letter-spacing="1.8">VARGINHA / MG · MINAS GERAIS</text>
  </g>
  <g stroke="rgba(255,255,255,0.16)" stroke-width="1" fill="none">
    <path d="M38 315 h16 M600 38 v16"/>
    <path d="M1162 315 h-16 M600 592 v-16"/>
  </g>
</svg>
