<svg xmlns="http://www.w3.org/2000/svg" viewBox="0 0 1400 1050" width="1400" height="1050" role="img" aria-label="SEGURANÇA — imagem provisória">
  <defs>
    <pattern id="g1" width="56" height="56" patternUnits="userSpaceOnUse">
      <path d="M56 0H0V56" fill="none" stroke="rgba(255,255,255,0.055)" stroke-width="1"/>
    </pattern>
    <pattern id="g2" width="280" height="280" patternUnits="userSpaceOnUse">
      <rect width="280" height="280" fill="url(#g1)"/>
      <path d="M280 0H0V280" fill="none" stroke="rgba(255,255,255,0.1)" stroke-width="1"/>
    </pattern>
    <linearGradient id="bg" x1="0" y1="0" x2="0.9" y2="1">
      <stop offset="0" stop-color="#3a424c"/>
      <stop offset="1" stop-color="#20252c"/>
    </linearGradient>
    <radialGradient id="glow" cx="0.78" cy="0.72" r="0.7">
      <stop offset="0" stop-color="#F48009" stop-opacity="0.1"/>
      <stop offset="1" stop-color="#F48009" stop-opacity="0"/>
    </radialGradient>
  </defs>
  <rect width="1400" height="1050" fill="url(#bg)"/>
  <rect width="1400" height="1050" fill="url(#glow)"/>
  <rect width="1400" height="1050" fill="url(#g2)"/>
  <g stroke="#F48009" stroke-opacity="0.13" fill="none" stroke-width="1.6">
    <circle cx="1036" cy="693" r="441"/>
    <circle cx="1036" cy="693" r="264.6"/>
    <circle cx="1036" cy="693" r="114.7"/>
    <line x1="1388.8" y1="693.0" x2="1538.7" y2="693.0"/><line x1="1382.0" y1="761.8" x2="1529.1" y2="791.1"/><line x1="1361.9" y1="828.0" x2="1500.5" y2="885.4"/><line x1="1329.3" y1="889.0" x2="1454.0" y2="972.3"/><line x1="1285.5" y1="942.5" x2="1391.5" y2="1048.5"/><line x1="1232.0" y1="986.3" x2="1315.3" y2="1111.0"/><line x1="1171.0" y1="1018.9" x2="1228.4" y2="1157.5"/><line x1="1104.8" y1="1039.0" x2="1134.1" y2="1186.1"/><line x1="1036.0" y1="1045.8" x2="1036.0" y2="1195.7"/><line x1="967.2" y1="1039.0" x2="937.9" y2="1186.1"/><line x1="901.0" y1="1018.9" x2="843.6" y2="1157.5"/><line x1="840.0" y1="986.3" x2="756.7" y2="1111.0"/><line x1="786.5" y1="942.5" x2="680.5" y2="1048.5"/><line x1="742.7" y1="889.0" x2="618.0" y2="972.3"/><line x1="710.1" y1="828.0" x2="571.5" y2="885.4"/><line x1="690.0" y1="761.8" x2="542.9" y2="791.1"/><line x1="683.2" y1="693.0" x2="533.3" y2="693.0"/><line x1="690.0" y1="624.2" x2="542.9" y2="594.9"/><line x1="710.1" y1="558.0" x2="571.5" y2="500.6"/><line x1="742.7" y1="497.0" x2="618.0" y2="413.7"/><line x1="786.5" y1="443.5" x2="680.5" y2="337.5"/><line x1="840.0" y1="399.7" x2="756.7" y2="275.0"/><line x1="901.0" y1="367.1" x2="843.6" y2="228.5"/><line x1="967.2" y1="347.0" x2="937.9" y2="199.9"/><line x1="1036.0" y1="340.2" x2="1036.0" y2="190.3"/><line x1="1104.8" y1="347.0" x2="1134.1" y2="199.9"/><line x1="1171.0" y1="367.1" x2="1228.4" y2="228.5"/><line x1="1232.0" y1="399.7" x2="1315.3" y2="275.0"/><line x1="1285.5" y1="443.5" x2="1391.5" y2="337.5"/><line x1="1329.3" y1="497.0" x2="1454.0" y2="413.7"/><line x1="1361.9" y1="558.0" x2="1500.5" y2="500.6"/><line x1="1382.0" y1="624.2" x2="1529.1" y2="594.9"/>
  </g>
  <rect x="0" y="1003.0" width="1400" height="3.1" fill="#F48009" fill-opacity="0.1"/><rect x="0" y="1013.4" width="1400" height="3.1" fill="#F48009" fill-opacity="0.1"/><rect x="0" y="1023.9" width="1400" height="3.1" fill="#F48009" fill-opacity="0.1"/><rect x="0" y="1034.3" width="1400" height="3.1" fill="#F48009" fill-opacity="0.1"/><rect x="0" y="1044.8" width="1400" height="3.1" fill="#F48009" fill-opacity="0.1"/><rect x="0" y="1055.2" width="1400" height="3.1" fill="#F48009" fill-opacity="0.1"/><rect x="0" y="1065.7" width="1400" height="3.1" fill="#F48009" fill-opacity="0.1"/><rect x="0" y="1076.1" width="1400" height="3.1" fill="#F48009" fill-opacity="0.1"/><rect x="0" y="1086.6" width="1400" height="3.1" fill="#F48009" fill-opacity="0.1"/>
  <rect x="63" y="63" width="27" height="4" fill="#F48009" fill-opacity="0.5"/>
  
  <g transform="translate(700, 525)" text-anchor="middle" opacity="0.42">
    <rect x="-17" y="-211" width="34" height="4" fill="#F48009"/>
    <text y="-120" fill="#F48009" font-family="Arial, Helvetica, sans-serif" font-size="21" font-weight="700" letter-spacing="4.6">IMAGEM PROVISÓRIA</text>
    <text y="0" fill="#FFFFFF" fill-opacity="0.72" font-family="Arial, Helvetica, sans-serif" font-size="48" font-weight="700" letter-spacing="1.0">SEGURANÇA</text>
    <text y="56" fill="#FFFFFF" fill-opacity="0.5" font-family="Arial, Helvetica, sans-serif" font-size="33">Trabalho em altura / EPIs</text>
    <text y="119" fill="#F48009" fill-opacity="0.85" font-family="Arial, Helvetica, sans-serif" font-size="21" font-weight="700" letter-spacing="2.9">SUBSTITUIR POR FOTO REAL</text>
  </g>
  <g stroke="rgba(255,255,255,0.16)" stroke-width="1" fill="none">
    <path d="M63 525 h16 M700 63 v16"/>
    <path d="M1337 525 h-16 M700 987 v-16"/>
  </g>
</svg>
